solid Untitled-5786ad30
facet normal 0.0 0.0 -1.0
  outer loop
    vertex 0.9999999999999999 0.9999999999999999 0.0
    vertex 0.0 0.0 0.0
    vertex 0.0 0.9999999999999999 0.0
  endloop
endfacet
facet normal 0.0 0.0 -1.0
  outer loop
    vertex 0.0 0.0 0.0
    vertex 0.9999999999999999 0.9999999999999999 0.0
    vertex 0.9999999999999999 0.0 0.0
  endloop
endfacet
facet normal -0.0 -0.0 1.0
  outer loop
    vertex 0.9999999999999999 0.0 0.9999999999999999
    vertex 0.0 0.9999999999999999 0.9999999999999999
    vertex 0.0 0.0 0.9999999999999999
  endloop
endfacet
facet normal -0.0 -0.0 1.0
  outer loop
    vertex 0.0 0.9999999999999999 0.9999999999999999
    vertex 0.9999999999999999 0.0 0.9999999999999999
    vertex 0.9999999999999999 0.9999999999999999 0.9999999999999999
  endloop
endfacet
facet normal -1.0 0.0 0.0
  outer loop
    vertex 0.0 0.9999999999999999 0.9999999999999999
    vertex 0.0 0.0 0.0
    vertex 0.0 0.0 0.9999999999999999
  endloop
endfacet
facet normal -1.0 0.0 0.0
  outer loop
    vertex 0.0 0.0 0.0
    vertex 0.0 0.9999999999999999 0.9999999999999999
    vertex 0.0 0.9999999999999999 0.0
  endloop
endfacet
facet normal -0.0 1.0 0.0
  outer loop
    vertex 0.0 0.9999999999999999 0.9999999999999999
    vertex 0.9999999999999999 0.9999999999999999 0.0
    vertex 0.0 0.9999999999999999 0.0
  endloop
endfacet
facet normal -0.0 1.0 0.0
  outer loop
    vertex 0.9999999999999999 0.9999999999999999 0.0
    vertex 0.0 0.9999999999999999 0.9999999999999999
    vertex 0.9999999999999999 0.9999999999999999 0.9999999999999999
  endloop
endfacet
facet normal 1.0 0.0 0.0
  outer loop
    vertex 0.9999999999999999 0.9999999999999999 0.0
    vertex 0.9999999999999999 0.0 0.9999999999999999
    vertex 0.9999999999999999 0.0 0.0
  endloop
endfacet
facet normal 1.0 0.0 0.0
  outer loop
    vertex 0.9999999999999999 0.0 0.9999999999999999
    vertex 0.9999999999999999 0.9999999999999999 0.0
    vertex 0.9999999999999999 0.9999999999999999 0.9999999999999999
  endloop
endfacet
facet normal -0.0 -1.0 -0.0
  outer loop
    vertex 0.9999999999999999 0.0 0.9999999999999999
    vertex 0.0 0.0 0.0
    vertex 0.9999999999999999 0.0 0.0
  endloop
endfacet
facet normal -0.0 -1.0 -0.0
  outer loop
    vertex 0.0 0.0 0.0
    vertex 0.9999999999999999 0.0 0.9999999999999999
    vertex 0.0 0.0 0.9999999999999999
  endloop
endfacet
endsolid Untitled-5786ad30
